<svg xmlns="http://www.w3.org/2000/svg" width="48" height="48" viewBox="0 0 24 24" fill="#ffa500">
  <path d="M12 .5C5.648.5.5 5.648.5 12c0 
  5.088 3.292 9.387 7.865 10.915.575.106.785-.25.785-.555 
  0-.274-.01-1.003-.015-1.967-3.201.695-3.878-1.544-3.878-1.544-.523-1.33-1.277-1.685-1.277-1.685-1.044-.714.08-.699.08-.699 
  1.155.081 1.763 1.186 1.763 1.186 1.026 1.757 2.692 1.25 3.347.956.104-.743.402-1.25.73-1.538-2.555-.29-5.238-1.277-5.238-5.683 
  0-1.255.45-2.28 1.186-3.082-.119-.29-.514-1.457.113-3.04 
  0 0 .967-.31 3.17 1.178a11.02 11.02 0 0 1 2.884-.388c.977.004 
  1.962.132 2.884.388 2.203-1.488 3.17-1.178 
  3.17-1.178.627 1.583.232 2.75.113 
  3.04.737.802 1.186 1.827 1.186 3.082 0 
  4.416-2.687 5.39-5.25 5.675.414.357.781 1.062.781 
  2.144 0 1.547-.014 2.797-.014 3.178 0 
  .307.207.666.79.553C20.713 21.383 24 17.085 24 
  12c0-6.352-5.148-11.5-11.5-11.5z"/>
</svg>